<svg width="56" height="18" viewBox="0 0 56 18" fill="none" xmlns="http://www.w3.org/2000/svg">
<path d="M7.82677 17.264C6.25744 17.264 4.90077 16.9853 3.75677 16.428C2.62744 15.856 1.75477 15.0713 1.13877 14.074C0.522773 13.062 0.214773 11.896 0.214773 10.576C0.214773 9.27067 0.442107 8.05333 0.896773 6.924C1.36611 5.79467 2.01877 4.81933 2.85477 3.998C3.70544 3.162 4.71011 2.50933 5.86877 2.04C7.04211 1.57067 8.34744 1.336 9.78477 1.336C11.1634 1.336 12.3808 1.57067 13.4368 2.04C14.4928 2.50933 15.2921 3.184 15.8348 4.064L13.2608 6.176C12.8648 5.58933 12.3588 5.142 11.7428 4.834C11.1268 4.526 10.3934 4.372 9.54277 4.372C8.67744 4.372 7.89277 4.526 7.18877 4.834C6.48477 5.12733 5.87611 5.55267 5.36277 6.11C4.86411 6.65267 4.48277 7.29067 4.21877 8.024C3.95477 8.75733 3.82277 9.53467 3.82277 10.356C3.82277 11.1333 3.99144 11.8153 4.32877 12.402C4.66611 12.974 5.15744 13.4213 5.80277 13.744C6.44811 14.0667 7.22544 14.228 8.13477 14.228C8.92677 14.228 9.66744 14.0887 10.3568 13.81C11.0461 13.5167 11.6694 13.062 12.2268 12.446L14.3388 14.602C13.5321 15.5407 12.5714 16.2227 11.4568 16.648C10.3568 17.0587 9.14677 17.264 7.82677 17.264ZM20.5833 17.176C19.674 17.176 18.8307 16.9707 18.0533 16.56C17.276 16.1347 16.6527 15.526 16.1833 14.734C15.714 13.942 15.4793 12.9887 15.4793 11.874C15.4793 10.8767 15.6407 9.96 15.9633 9.124C16.3007 8.288 16.77 7.562 17.3713 6.946C17.9727 6.33 18.6693 5.85333 19.4613 5.516C20.2533 5.164 21.104 4.988 22.0133 4.988C22.996 4.988 23.8393 5.17133 24.5433 5.538C25.2473 5.90467 25.768 6.47667 26.1053 7.254C26.4573 8.01667 26.582 9.00667 26.4793 10.224C26.406 11.6173 26.12 12.842 25.6213 13.898C25.1227 14.9393 24.448 15.746 23.5973 16.318C22.7613 16.89 21.7567 17.176 20.5833 17.176ZM21.6393 14.338C22.314 14.338 22.908 14.1767 23.4213 13.854C23.9493 13.5167 24.36 13.062 24.6533 12.49C24.9613 11.9033 25.1153 11.2213 25.1153 10.444C25.1153 9.63733 24.8733 8.99933 24.3893 8.53C23.92 8.06067 23.26 7.826 22.4093 7.826C21.7493 7.826 21.1553 7.99467 20.6273 8.332C20.0993 8.65467 19.6813 9.10933 19.3733 9.696C19.08 10.268 18.9333 10.9427 18.9333 11.72C18.9333 12.5267 19.168 13.1647 19.6373 13.634C20.1213 14.1033 20.7887 14.338 21.6393 14.338ZM23.9933 17L24.4553 14.646L25.2253 11.126L25.6873 7.606L26.1713 5.164H29.6033L27.2493 17H23.9933ZM34.7388 17.176C33.6975 17.176 32.7148 17.0587 31.7908 16.824C30.8815 16.5893 30.1775 16.296 29.6788 15.944L30.9988 13.458C31.5121 13.7953 32.1355 14.0667 32.8688 14.272C33.6168 14.4773 34.3648 14.58 35.1128 14.58C35.9195 14.58 36.5061 14.4773 36.8728 14.272C37.2395 14.0667 37.4228 13.788 37.4228 13.436C37.4228 13.1573 37.2688 12.952 36.9608 12.82C36.6528 12.6733 36.2641 12.556 35.7948 12.468C35.3255 12.38 34.8195 12.2773 34.2768 12.16C33.7488 12.0427 33.2428 11.8813 32.7588 11.676C32.2895 11.456 31.9008 11.148 31.5928 10.752C31.2995 10.3413 31.1528 9.806 31.1528 9.146C31.1528 8.25133 31.4021 7.496 31.9008 6.88C32.4141 6.264 33.1181 5.79467 34.0128 5.472C34.9221 5.14933 35.9488 4.988 37.0928 4.988C37.9141 4.988 38.7135 5.076 39.4908 5.252C40.2681 5.428 40.9281 5.67 41.4708 5.978L40.2388 8.486C39.6815 8.134 39.0948 7.89933 38.4788 7.782C37.8775 7.65 37.2981 7.584 36.7408 7.584C35.9341 7.584 35.3475 7.70133 34.9808 7.936C34.6288 8.156 34.4528 8.42733 34.4528 8.75C34.4528 9.02867 34.5995 9.24867 34.8928 9.41C35.2008 9.55667 35.5895 9.68133 36.0588 9.784C36.5281 9.872 37.0341 9.97467 37.5768 10.092C38.1195 10.1947 38.6255 10.356 39.0948 10.576C39.5641 10.7813 39.9455 11.082 40.2388 11.478C40.5468 11.8593 40.7008 12.38 40.7008 13.04C40.7008 13.9347 40.4368 14.6973 39.9088 15.328C39.3955 15.944 38.6915 16.406 37.7968 16.714C36.9021 17.022 35.8828 17.176 34.7388 17.176ZM51.3543 4.988C52.3516 4.988 53.2023 5.20067 53.9063 5.626C54.6103 6.03667 55.109 6.64533 55.4023 7.452C55.7103 8.25867 55.747 9.256 55.5123 10.444L54.1923 17H50.7603L52.0363 10.664C52.2123 9.79867 52.139 9.13133 51.8163 8.662C51.5083 8.19267 50.9363 7.958 50.1003 7.958C49.235 7.958 48.509 8.20733 47.9223 8.706C47.3503 9.20467 46.9543 9.96733 46.7343 10.994L45.5463 17H42.1143L45.3703 0.675999H48.8023L47.2403 8.508L46.5583 7.496C47.1303 6.63067 47.8343 6 48.6703 5.604C49.521 5.19333 50.4156 4.988 51.3543 4.988Z" fill="black"/>
</svg>
